<svg xmlns="http://www.w3.org/2000/svg" viewBox="0 0 320 120">
  <defs>
    <linearGradient id="goldGrad" x1="0" y1="0" x2="1" y2="1">
      <stop offset="0%" stop-color="#ffb600"/>
      <stop offset="100%" stop-color="#ff7a00"/>
    </linearGradient>
  </defs>
  <rect width="320" height="120" rx="24" fill="#0d0d0d"/>
  <rect x="24" y="22" width="76" height="76" rx="18" fill="#121212" stroke="url(#goldGrad)" stroke-width="4"/>
  <rect x="40" y="28" width="42" height="12" rx="6" fill="#ffb600"/>
  <rect x="40" y="46" width="42" height="12" rx="6" fill="#ffffff"/>
  <path d="M40 68h42v12H40z" fill="#121212" stroke="#ffb600" stroke-width="3"/>
  <text x="118" y="50" fill="#ffffff" font-family="Arial, Helvetica, sans-serif" font-size="28" font-weight="700">LEVIS</text>
  <text x="118" y="82" fill="#ffb600" font-family="Arial, Helvetica, sans-serif" font-size="18" font-weight="700">BARBER</text>
  <path d="M210 42c0-9-7-16-16-16h-34c-9 0-16 7-16 16v42c0 9 7 16 16 16h34c9 0 16-7 16-16V42z" fill="#121212" stroke="#ffb600" stroke-width="4"/>
  <path d="M196 46l12 8" stroke="#ffffff" stroke-width="4" stroke-linecap="round"/>
  <path d="M196 62l12-8" stroke="#ffffff" stroke-width="4" stroke-linecap="round"/>
  <rect x="232" y="40" width="14" height="32" rx="7" fill="#ffb600"/>
</svg>
